<?xml version="1.0" standalone="no"?>
<!DOCTYPE svg PUBLIC "-//W3C//DTD SVG 20010904//EN"
 "http://www.w3.org/TR/2001/REC-SVG-20010904/DTD/svg10.dtd">
<svg version="1.0" xmlns="http://www.w3.org/2000/svg"
 width="715.000000pt" height="1220.000000pt" viewBox="0 0 715.000000 1220.000000"
 preserveAspectRatio="xMidYMid meet">
<metadata>
Created by potrace 1.13, written by Peter Selinger 2001-2015
</metadata>
<g transform="translate(0.000000,1220.000000) scale(0.100000,-0.100000)"
fill="#000000" stroke="none">
<path d="M2775 11904 c-203 -43 -315 -115 -588 -381 -202 -197 -236 -227 -397
-339 -222 -155 -414 -405 -514 -670 -27 -72 -60 -112 -154 -183 -23 -18 -54
-53 -68 -78 -23 -38 -26 -52 -21 -98 5 -50 1 -65 -63 -212 -249 -579 -404
-1208 -450 -1833 -6 -80 -14 -248 -18 -375 -7 -213 -10 -233 -30 -270 -13 -22
-39 -51 -58 -64 -62 -43 -69 -67 -68 -241 1 -127 8 -206 43 -440 56 -380 68
-535 53 -692 -10 -106 -35 -235 -57 -289 -4 -12 2 -20 23 -28 41 -17 77 -57
103 -116 19 -42 24 -76 30 -215 4 -91 12 -180 18 -198 17 -56 51 -101 94 -126
61 -36 105 -41 149 -18 l38 20 -5 -22 c-3 -11 -16 -71 -29 -132 -22 -104 -26
-114 -66 -155 -24 -24 -57 -73 -74 -109 -25 -53 -31 -80 -34 -155 -5 -106 -20
-114 143 79 67 80 114 129 110 115 -3 -13 1 -49 10 -79 44 -159 45 -167 36
-193 -9 -24 -8 -26 21 -29 47 -5 44 -20 -10 -50 -100 -56 -196 -178 -225 -285
-21 -78 -32 -167 -20 -160 6 4 66 95 133 203 112 178 125 194 133 173 9 -24 3
-173 -10 -218 -10 -38 14 -16 41 38 35 67 50 158 43 254 -7 95 -133 1007 -145
1052 -8 29 -10 27 -32 -43 -18 -60 -22 -89 -18 -158 4 -77 3 -83 -11 -69 -9 9
-21 29 -26 46 l-10 30 -43 -30 c-23 -17 -46 -31 -50 -31 -33 0 -53 222 -28
317 16 65 61 161 95 203 20 25 21 25 21 3 0 -41 40 -130 76 -169 l35 -39 -5
30 c-24 136 -66 535 -88 825 -18 238 -18 1245 0 1470 31 386 62 667 107 955
13 82 22 151 20 153 -2 2 -28 -11 -60 -29 l-56 -32 8 -56 c14 -95 8 -260 -11
-344 -19 -83 -97 -251 -141 -302 l-26 -30 4 105 c4 116 31 202 90 289 30 44
27 45 -26 8 l-29 -20 7 49 c27 193 106 540 139 617 l14 32 1 -30 c1 -17 -6
-41 -15 -53 -9 -13 -13 -29 -10 -37 7 -19 60 -19 75 -1 28 34 5 136 -30 136
-11 0 -19 2 -19 5 0 16 96 267 140 365 169 380 425 775 672 1036 69 73 100 91
202 119 56 16 116 59 116 84 0 7 -48 11 -145 11 -138 0 -145 1 -145 20 0 11
11 27 25 36 26 17 49 17 186 -2 33 -4 56 -2 81 10 18 9 120 92 225 185 165
145 195 167 219 164 183 -22 787 -73 814 -68 46 8 80 31 80 53 0 16 -16 20
-118 30 -106 10 -272 48 -289 66 -4 3 1 23 11 42 9 20 16 38 14 39 -2 1 -37
-2 -78 -7 l-76 -10 -97 57 c-54 32 -96 59 -95 61 2 2 33 -1 68 -6 116 -17 350
-11 598 15 309 32 307 32 287 51 -18 19 -21 84 -2 83 6 -1 23 -5 37 -9 24 -8
24 -8 3 -9 -30 -1 -33 -41 -3 -41 14 0 20 -7 20 -21 0 -16 5 -20 27 -17 33 4
43 27 14 35 -12 3 -21 13 -21 23 0 14 11 19 48 25 44 6 127 40 163 66 13 9 25
6 63 -16 l48 -28 -119 -63 c-65 -35 -122 -65 -128 -67 -23 -9 7 -17 103 -28
102 -12 231 -3 325 22 l38 10 -56 50 c-30 28 -55 55 -55 60 0 15 122 10 178
-6 57 -17 62 -24 32 -43 -28 -17 -26 -63 3 -90 15 -14 52 -28 98 -38 80 -17
88 -20 173 -77 57 -37 106 -100 126 -162 10 -31 13 -32 76 -38 65 -6 173 -47
195 -73 9 -11 5 -14 -24 -14 -60 0 -50 -17 21 -36 81 -21 218 -112 394 -264
602 -517 953 -1269 1067 -2285 30 -270 41 -490 41 -838 0 -366 -2 -412 -80
-2102 -45 -968 -63 -1281 -72 -1286 -7 -4 -28 -19 -46 -32 l-32 -24 37 -47
c36 -43 41 -46 86 -46 117 0 227 -102 227 -211 0 -35 -2 -40 -17 -34 -74 30
-182 33 -259 5 -54 -18 -124 -63 -124 -78 0 -4 17 -15 38 -24 20 -10 45 -30
54 -45 18 -31 22 -27 33 39 5 33 10 38 41 44 87 16 222 -34 288 -106 20 -22
38 -40 40 -40 2 0 10 23 16 51 17 69 8 156 -23 223 -14 31 -23 56 -19 57 4 0
61 8 127 17 l120 17 -2 63 c-4 135 -67 268 -183 383 l-76 75 19 44 c31 71 33
154 6 267 -32 137 -31 215 4 274 22 38 27 57 26 110 0 35 -35 300 -77 589
l-78 525 23 18 c29 23 45 53 52 96 5 30 11 35 55 48 48 14 119 53 131 72 3 6
-30 28 -75 51 -44 22 -80 43 -80 46 0 3 17 31 39 62 21 31 54 89 73 127 39 78
101 259 96 283 -2 11 -36 -15 -102 -79 l-100 -94 81 155 c44 85 122 236 173
334 l94 180 -81 -66 c-85 -69 -168 -122 -248 -157 -26 -12 -49 -21 -51 -21 -2
0 7 16 21 36 36 52 40 111 22 264 -18 146 -13 202 22 269 14 28 36 45 101 78
45 23 103 61 127 85 81 80 132 217 118 324 -8 63 -20 70 -28 17 -18 -108 -126
-242 -241 -298 -39 -19 -87 -38 -106 -41 l-35 -5 29 22 c117 91 191 171 228
243 23 45 35 148 21 183 -8 21 -22 5 -139 -152 l-131 -175 -7 98 c-50 687
-293 1395 -681 1982 -159 240 -289 402 -495 614 -451 464 -941 762 -1425 867
-88 19 -146 22 -480 29 -364 7 -384 9 -483 34 -95 24 -190 31 -247 20z m158
-141 l92 -37 372 -6 c204 -3 373 -7 376 -10 3 -3 1 -15 -4 -27 -8 -21 -10 -21
-36 -8 -32 17 -115 20 -144 5 -13 -7 -25 -7 -38 0 -15 8 -29 6 -55 -6 -32 -16
-37 -16 -75 0 -41 16 -135 22 -165 10 -9 -3 -16 -14 -16 -24 0 -43 -9 -49 -45
-34 -45 18 -85 18 -85 -1 0 -10 -7 -8 -23 9 -28 28 -186 63 -198 44 -18 -29
19 -72 77 -88 53 -15 66 -30 26 -30 -16 0 -35 -7 -42 -15 -11 -13 -15 -13 -40
0 -25 13 -32 13 -57 0 -15 -8 -41 -15 -58 -15 -36 0 -62 14 -46 24 6 4 11 16
11 26 0 36 -124 38 -246 4 -66 -19 -106 -5 -71 24 7 6 60 27 117 48 102 35
201 96 214 130 9 24 61 16 159 -23z m-373 -326 c27 -9 36 -19 40 -41 4 -23 13
-32 44 -43 54 -18 55 -20 11 -39 -36 -15 -40 -14 -96 10 -134 61 -283 55 -380
-15 -36 -26 -49 -17 -28 19 19 35 98 88 158 106 56 18 203 19 251 3z m-462
-313 c36 -10 21 -26 -69 -72 -72 -37 -97 -44 -177 -52 -51 -6 -108 -16 -127
-24 -78 -33 -16 43 71 85 113 56 234 81 302 63z m-1541 -3902 c-1 -53 2 -66
18 -78 18 -14 18 -15 -13 -26 -18 -7 -32 -16 -32 -21 0 -19 32 -67 45 -67 24
0 26 -17 4 -44 -24 -31 -49 -34 -49 -7 0 30 -11 51 -26 51 -20 0 -27 43 -20
121 6 69 6 69 -19 69 -22 0 -24 2 -15 26 6 15 20 39 31 55 l20 29 29 -22 c28
-20 29 -25 27 -86z m47 -575 l49 -21 -7 -125 c-4 -69 -9 -172 -13 -228 -5 -85
-3 -103 8 -103 38 -1 40 -13 14 -144 -34 -181 -75 -253 -131 -232 -14 5 -16
16 -10 67 3 33 17 88 31 123 14 34 25 73 25 86 0 26 -26 60 -45 60 -10 0 -11
10 -3 43 12 53 3 138 -22 210 -31 88 -5 137 74 137 20 0 36 4 36 8 0 18 -57
62 -88 68 -18 4 -32 10 -32 14 0 4 -3 22 -7 40 l-6 33 39 -7 c21 -4 61 -17 88
-29z m141 -861 c-8 -27 -15 -66 -15 -87 0 -34 -3 -39 -35 -49 -20 -7 -52 -9
-75 -5 -42 7 -104 43 -103 60 0 12 32 28 93 46 35 11 49 22 66 54 36 64 43 70
65 48 17 -17 17 -21 4 -67z m5914 -1412 c17 -50 33 -113 36 -141 l7 -49 -96 0
-95 1 -7 27 c-6 32 -17 34 -95 17 -58 -13 -69 -6 -69 44 0 58 23 91 81 111 39
13 69 35 113 80 l61 61 17 -30 c10 -16 31 -71 47 -121z"/>
<path d="M6578 9025 c-9 -9 1 -35 21 -59 9 -10 69 -54 134 -98 l117 -78 0 -50
c0 -61 26 -95 62 -81 33 12 53 51 44 87 -9 36 -157 183 -239 238 -55 36 -124
56 -139 41z"/>
<path d="M4772 8464 c-25 -10 -34 -22 -44 -58 l-12 -46 -38 6 c-37 6 -38 6
-38 -25 0 -31 0 -31 -55 -31 -147 0 -255 -131 -225 -273 6 -29 20 -65 33 -80
l22 -28 100 15 c161 25 164 26 183 46 17 19 19 19 122 -5 112 -26 165 -31 175
-16 3 6 48 8 108 4 62 -3 139 0 197 8 52 7 115 13 140 13 25 1 50 4 55 8 6 3
36 -2 68 -13 93 -31 198 -42 280 -28 40 6 81 10 92 9 11 -1 35 -3 53 -4 31 -1
32 -3 32 -41 0 -22 3 -63 6 -91 6 -47 4 -53 -15 -59 -31 -10 -26 -29 14 -48
35 -16 37 -16 65 5 24 17 30 29 30 59 0 73 -66 249 -116 308 -17 21 -64 51
-120 78 -63 30 -101 55 -119 79 -45 59 -82 70 -445 134 -339 60 -412 68 -440
51 -10 -7 -18 -4 -27 8 -17 26 -45 31 -81 15z m781 -250 c22 -8 61 -14 88 -14
62 0 99 -14 99 -38 0 -17 -7 -19 -77 -14 -60 4 -81 9 -93 24 -8 11 -33 22 -56
25 -58 7 -196 -13 -241 -35 -52 -27 -101 -33 -147 -19 -48 15 -53 26 -26 60
25 31 55 35 82 10 16 -14 23 -15 38 -5 12 7 21 8 25 2 4 -6 12 -7 18 -3 51 32
208 36 290 7z"/>
<path d="M2545 8370 c-123 -12 -547 -77 -617 -95 -32 -8 -86 -29 -120 -46 -36
-18 -96 -37 -143 -45 -159 -28 -282 -117 -349 -256 -37 -78 -57 -168 -37 -168
33 0 101 24 101 35 0 19 48 73 79 89 18 9 34 11 50 5 13 -5 32 -7 42 -4 21 7
64 63 55 72 -3 3 -25 -1 -48 -10 -37 -15 -44 -15 -57 -3 -12 13 -10 19 17 45
34 35 75 40 104 15 20 -19 33 -20 183 -5 185 17 313 14 381 -9 81 -28 201 -39
456 -41 187 -1 221 1 243 15 14 9 25 22 25 29 0 6 18 19 40 29 22 9 47 30 58
47 l18 30 60 -67 c90 -102 88 -99 76 -126 -10 -22 -8 -25 19 -36 16 -7 33 -10
36 -6 7 7 -33 221 -49 266 -14 37 -49 70 -75 70 -13 0 -23 6 -23 14 0 22 -78
86 -134 111 -102 44 -235 60 -391 45z"/>
<path d="M6773 7932 c-51 -47 -86 -143 -69 -188 6 -15 11 -13 37 12 42 40 66
82 78 133 9 43 6 71 -9 71 -4 0 -21 -12 -37 -28z"/>
<path d="M4150 7566 c-14 -121 -9 -281 11 -350 6 -21 22 -50 36 -64 15 -15 34
-56 47 -100 28 -94 44 -107 85 -68 l29 28 -34 30 c-37 33 -54 79 -54 148 0 25
-6 69 -13 97 -12 45 -12 54 1 67 16 15 9 36 -12 36 -23 0 -46 64 -46 128 0 51
3 60 20 65 26 7 26 34 1 42 -11 3 -21 16 -23 28 -2 12 -10 23 -19 25 -13 2
-18 -17 -29 -112z"/>
<path d="M4915 7663 c-62 -8 -197 -43 -228 -59 -17 -9 -48 -31 -67 -49 -19
-17 -56 -44 -81 -58 -52 -30 -131 -113 -159 -166 -29 -57 -50 -140 -38 -147
16 -10 80 -7 113 6 16 6 56 30 89 54 57 41 118 76 131 76 3 0 5 -14 5 -30 0
-132 148 -231 329 -218 94 7 141 34 201 116 51 71 81 92 130 92 37 0 65 -38
56 -75 -10 -39 -72 -91 -139 -116 -83 -30 -88 -35 -54 -64 43 -38 84 -40 168
-10 175 64 287 93 474 122 49 8 50 9 50 43 0 33 -2 35 -71 60 -39 15 -118 52
-176 82 -242 128 -403 171 -643 172 -97 0 -180 -6 -237 -16 -77 -15 -128 -15
-128 0 0 8 33 31 84 58 102 54 265 67 478 39 175 -23 260 -48 403 -120 148
-74 205 -85 205 -40 0 64 -295 201 -517 240 -79 14 -301 18 -378 8z"/>
<path d="M2354 7586 c-14 -35 2 -43 93 -48 73 -3 99 -10 154 -36 108 -52 105
-60 -14 -44 -185 25 -410 4 -607 -54 -105 -32 -289 -119 -350 -165 -25 -19
-66 -42 -91 -52 -55 -21 -112 -76 -100 -96 20 -32 132 -32 244 0 40 11 49 11
56 0 7 -10 14 -10 39 3 49 25 110 21 134 -9 21 -26 68 -55 90 -55 7 0 19 13
26 29 20 44 57 53 155 36 233 -42 341 2 380 155 l15 55 53 -1 c37 0 85 -12
152 -38 70 -26 111 -36 140 -34 40 3 42 5 45 38 1 22 -6 50 -21 75 -18 32 -29
41 -55 43 -36 4 -39 9 -14 28 16 12 15 14 -7 31 -125 94 -253 141 -408 150
-89 5 -103 4 -109 -11z"/>
<path d="M2990 7221 c0 -51 -8 -71 -29 -71 -9 0 -22 -5 -27 -10 -8 -8 -20 -7
-40 0 -16 7 -60 11 -99 10 -38 -2 -89 -2 -112 -2 -35 1 -43 -2 -43 -17 0 -14
-10 -20 -40 -25 -46 -7 -80 -36 -80 -67 0 -25 -5 -25 230 10 144 22 246 26
269 12 12 -8 12 -13 -3 -36 -9 -14 -28 -31 -41 -37 -14 -6 -27 -19 -30 -30 -4
-11 -16 -18 -31 -18 -18 0 -24 -5 -24 -21 0 -12 -16 -36 -35 -53 -26 -23 -33
-35 -26 -45 8 -12 19 -8 66 20 31 18 90 60 132 93 l75 59 -6 56 c-4 31 -14 90
-24 131 -17 73 -18 75 -50 78 -31 3 -32 2 -32 -37z"/>
<path d="M162 7068 c-7 -7 -12 -40 -12 -76 0 -58 3 -66 31 -94 16 -17 33 -43
36 -59 9 -46 66 -50 82 -5 6 16 0 30 -25 60 -37 43 -54 90 -54 149 0 32 -3 37
-23 37 -13 0 -28 -5 -35 -12z"/>
<path d="M2655 6913 c-11 -2 -67 -19 -125 -38 -140 -44 -176 -52 -305 -65 -83
-9 -139 -8 -228 0 -64 7 -124 10 -132 6 -8 -3 -17 -1 -20 4 -7 11 -68 14 -78
4 -3 -3 -1 -19 5 -35 11 -31 2 -28 193 -76 161 -40 268 -38 490 11 154 34 173
40 205 71 40 38 73 56 115 65 44 9 47 45 4 54 -34 7 -92 6 -124 -1z"/>
<path d="M5565 6910 c-11 -5 -43 -9 -72 -9 -59 -1 -83 -23 -83 -74 0 -28 -2
-29 -37 -24 -21 2 -64 10 -95 18 -51 11 -63 11 -114 -5 -81 -25 -145 -23 -211
9 -29 15 -61 37 -69 50 -14 21 -17 22 -43 9 -25 -12 -36 -12 -87 1 -92 24
-174 19 -174 -10 0 -17 128 -67 255 -100 109 -28 115 -31 115 -51 0 -22 476
-21 508 2 22 15 22 17 6 35 -16 18 -15 20 30 40 35 15 63 20 104 18 68 -4 82
3 82 40 0 40 -18 53 -41 30 -22 -22 -39 -17 -39 12 0 21 -5 22 -35 9z"/>
<path d="M6843 6787 c-110 -55 -116 -63 -88 -117 23 -44 48 -38 115 26 53 51
87 109 78 133 -2 5 -49 -14 -105 -42z"/>
<path d="M4696 6025 c-3 -8 -12 -15 -21 -15 -20 0 -20 1 20 -66 19 -32 45 -89
57 -126 13 -39 28 -68 35 -68 7 0 18 -11 25 -24 9 -21 7 -31 -11 -62 -24 -41
-15 -59 24 -48 35 11 45 25 45 63 0 55 -10 81 -31 81 -24 0 -34 18 -30 54 4
44 -19 115 -45 135 -21 17 -22 19 -6 35 16 16 15 18 -8 36 -30 24 -46 25 -54
5z"/>
<path d="M2456 5675 c-60 -21 -105 -64 -148 -139 -26 -47 -84 -115 -179 -214
-102 -105 -138 -149 -134 -161 4 -13 -5 -25 -32 -43 -88 -58 -193 -184 -193
-230 0 -17 -8 -42 -19 -56 -30 -42 -51 -118 -51 -180 l0 -58 34 4 c32 4 34 2
29 -19 -3 -13 -12 -33 -20 -44 -18 -26 -16 -65 3 -87 12 -12 14 -21 7 -30 -35
-45 -16 -98 34 -98 20 0 24 3 18 18 -5 9 -7 26 -6 37 1 11 3 83 4 160 3 122 6
149 29 213 54 149 164 302 330 455 78 72 118 119 183 218 98 147 149 198 195
191 29 -4 30 -3 30 37 0 41 0 41 -37 41 -21 -1 -55 -7 -77 -15z"/>
<path d="M5190 5555 c-10 -12 -7 -17 14 -26 21 -10 26 -19 26 -46 0 -23 5 -35
18 -39 34 -11 47 -21 67 -52 22 -34 54 -41 100 -20 36 16 25 33 -21 33 l-39 0
-3 50 c-3 45 -8 54 -44 83 -44 35 -96 43 -118 17z"/>
<path d="M3064 5373 c-31 -3 -44 -10 -57 -33 -23 -38 -22 -42 15 -95 36 -51
52 -55 138 -29 87 26 123 21 275 -36 138 -51 228 -69 253 -52 10 7 10 15 2 38
-29 75 -132 140 -285 179 -91 23 -259 37 -341 28z"/>
<path d="M4445 5336 c-40 -18 -73 -55 -85 -96 l-9 -33 67 6 c37 4 100 15 139
25 l72 18 10 -23 c16 -34 24 -117 17 -159 l-7 -36 -22 20 c-46 41 -89 57 -162
56 -88 -1 -156 -33 -267 -128 -78 -67 -83 -74 -69 -111 6 -15 1 -26 -21 -46
-15 -15 -31 -41 -34 -58 -6 -29 -8 -30 -27 -16 -35 24 -57 19 -57 -13 0 -37
-34 -68 -85 -78 l-39 -7 28 34 c31 37 61 98 52 107 -4 3 -17 0 -30 -7 -19 -11
-31 -10 -68 2 -24 9 -73 23 -109 32 -35 9 -71 18 -80 21 -11 3 -20 -5 -28 -24
-26 -61 -114 -122 -178 -122 -15 0 -57 7 -93 16 -86 21 -109 12 -143 -58 -37
-75 -82 -103 -164 -103 -56 0 -63 -2 -63 -20 -1 -20 -1 -20 -12 0 -24 42 -48
36 -48 -12 0 -19 -12 -26 -87 -48 -49 -15 -99 -30 -113 -34 -15 -5 -25 -15
-25 -27 0 -15 8 -19 40 -21 22 -1 181 -29 352 -62 172 -33 363 -67 425 -76
144 -20 387 -20 543 0 217 29 676 136 674 159 0 6 -10 27 -23 45 l-23 35 20
50 c21 56 36 216 20 216 -18 0 -98 -58 -142 -104 l-45 -46 17 -52 c9 -28 15
-53 14 -54 -1 -1 -24 -5 -51 -9 -35 -6 -47 -5 -42 3 4 7 2 21 -4 32 -6 11 -7
20 -2 20 29 0 40 115 26 283 l-7 75 -41 -21 c-22 -12 -66 -27 -96 -33 l-55
-12 37 -16 c21 -9 51 -16 69 -16 30 0 31 0 24 -40 -4 -24 -2 -55 6 -77 7 -21
12 -51 10 -67 -2 -35 -44 -122 -73 -153 -19 -20 -23 -21 -48 -8 -32 17 -70 73
-70 103 0 22 13 28 70 34 22 3 25 8 24 41 -1 21 -4 40 -6 43 -3 2 -26 -5 -52
-16 -49 -20 -51 -20 -58 25 -4 25 -31 31 -51 11 -13 -13 -17 -13 -27 -1 -22
26 16 76 117 155 148 115 190 140 239 140 73 0 97 -46 69 -130 -9 -28 -15 -52
-14 -54 56 -37 58 -38 89 -16 29 21 30 22 14 52 -13 25 -14 32 -2 39 20 13 80
29 111 29 25 0 27 3 27 44 0 51 -32 160 -66 228 -32 63 -79 115 -125 139 -45
22 -129 25 -174 5z m-690 -620 c18 -13 17 -14 -7 -47 -14 -19 -33 -49 -42 -66
-16 -32 -16 -33 4 -33 11 0 37 -7 58 -15 34 -14 41 -14 68 0 36 19 65 19 109
1 36 -16 45 -12 45 16 0 21 12 23 41 7 16 -8 29 -7 54 5 36 17 60 13 70 -12 8
-21 -4 -97 -19 -116 -14 -20 -323 -96 -388 -96 -26 0 -76 9 -110 20 -35 10
-98 22 -141 25 -68 6 -78 9 -72 23 4 10 12 43 18 75 11 58 25 73 34 37 3 -11
9 -20 13 -20 19 0 111 105 135 155 27 54 28 55 69 55 23 0 51 -6 61 -14z"/>
<path d="M5467 5142 c-26 -29 -20 -46 28 -80 24 -17 54 -47 67 -67 28 -44 66
-45 86 -3 28 60 -53 168 -127 168 -24 0 -44 -7 -54 -18z"/>
<path d="M3868 5073 c-1 -5 -20 -21 -41 -36 -65 -49 -85 -107 -36 -107 10 0
24 -11 32 -25 l13 -26 26 20 c14 12 28 31 32 44 3 15 20 30 47 42 44 20 69 48
69 78 0 15 -4 17 -17 11 -31 -13 -90 -16 -97 -5 -8 13 -23 14 -28 4z"/>
<path d="M2410 4980 c-11 -11 -20 -27 -20 -35 0 -8 -6 -15 -13 -15 -7 0 -23
-13 -35 -30 -21 -28 -21 -31 -7 -54 16 -24 15 -25 -19 -37 -19 -7 -37 -21 -39
-31 -3 -10 -13 -18 -22 -18 -14 0 -16 -6 -12 -28 5 -26 1 -32 -49 -61 -70 -43
-74 -71 -11 -71 40 0 64 -9 162 -63 16 -9 33 -13 38 -8 4 4 -10 54 -33 111
-23 57 -39 109 -36 116 2 6 18 15 35 19 30 6 61 38 61 62 0 6 -10 15 -22 19
-21 7 -20 8 12 19 26 9 42 24 62 60 14 27 24 53 22 57 -10 15 -54 8 -74 -12z"/>
<path d="M5290 4961 c0 -47 103 -174 180 -222 44 -28 44 -28 20 -37 -36 -14
-69 -53 -76 -90 l-6 -31 31 12 c40 15 79 -4 100 -48 12 -25 12 -41 -3 -119
-17 -93 -13 -139 15 -172 10 -12 8 -18 -9 -29 -22 -16 -37 -54 -47 -122 -8
-49 -38 -93 -64 -93 -16 0 -19 14 -26 130 -6 112 -5 132 9 146 21 21 20 30 -8
99 l-24 59 -16 -38 c-9 -21 -16 -41 -16 -43 0 -5 -110 -225 -115 -231 -1 -1
-18 5 -38 13 -45 18 -47 18 -47 1 0 -22 109 -128 175 -172 90 -59 94 -72 107
-331 6 -120 12 -219 13 -221 2 -2 19 4 40 12 34 14 36 14 31 -2 -3 -9 -15 -61
-25 -114 l-20 -97 24 -56 c14 -30 25 -60 25 -65 0 -9 -138 -120 -150 -120 -3
0 -19 13 -34 29 -24 25 -27 33 -19 58 5 15 26 39 46 52 30 20 37 31 37 56 0
28 -5 34 -41 51 l-41 18 -34 -36 c-55 -61 -67 -120 -73 -388 l-6 -235 -124 -3
-123 -3 6 -27 c3 -15 8 -37 12 -48 5 -19 1 -23 -38 -29 -98 -17 -161 -72 -189
-167 -4 -15 -5 -28 -1 -28 4 0 33 21 66 46 65 52 61 53 102 -33 22 -47 44
-138 44 -187 0 -16 -2 -16 -16 -5 -28 23 -46 70 -42 110 2 22 2 39 1 39 -26 0
-147 -111 -172 -159 -10 -18 -9 -22 13 -30 35 -14 65 -3 82 32 l16 30 12 -24
c6 -13 28 -35 49 -48 20 -13 37 -32 37 -41 0 -24 -38 -70 -58 -70 -9 0 3 -12
28 -27 25 -14 47 -28 50 -30 3 -3 -6 -13 -19 -24 -25 -21 -71 -25 -101 -9 -20
11 -45 74 -35 90 4 6 -10 10 -35 10 -49 0 -77 13 -106 47 -21 25 -22 25 -56 9
-91 -43 -160 -143 -173 -250 -7 -53 -8 -55 -54 -74 -25 -11 -58 -22 -72 -26
-26 -6 -27 -9 -34 -93 -8 -107 -32 -249 -45 -273 -17 -33 -46 -33 -109 0 -33
16 -65 30 -70 30 -10 0 -81 -84 -100 -117 -7 -13 -14 -14 -44 -4 -20 7 -39 16
-42 20 -6 11 67 116 123 175 47 49 174 139 215 152 21 7 21 7 2 15 -11 4 -50
8 -86 8 -54 1 -77 -4 -127 -30 -70 -35 -125 -93 -145 -153 -12 -35 -18 -41
-51 -48 -53 -11 -106 -38 -106 -53 0 -13 40 -50 63 -58 15 -5 -18 -44 -53 -62
-72 -37 -150 -27 -298 36 -113 48 -191 67 -202 49 -5 -7 -11 -37 -15 -67 -6
-51 -8 -53 -37 -53 -38 0 -89 24 -119 56 l-22 24 31 0 c42 0 82 16 115 48 35
34 34 45 -8 65 -31 15 -35 15 -35 1 0 -8 4 -24 10 -34 13 -24 -11 -30 -80 -19
-108 17 -201 83 -249 177 -11 21 -31 85 -45 142 -24 95 -32 113 -105 219 -131
193 -175 297 -187 442 l-7 79 32 0 c51 0 77 -34 85 -111 4 -35 9 -84 12 -109
l6 -45 40 38 c22 21 53 40 69 44 33 6 33 5 14 58 -8 22 -14 52 -15 67 0 26 2
27 27 17 24 -9 75 -5 97 9 19 11 -42 31 -95 32 l-56 0 -67 101 c-37 55 -65
103 -63 106 10 10 47 -19 62 -47 17 -34 19 -34 45 -20 23 12 17 36 -11 43 -10
3 -19 14 -19 24 0 46 -64 61 -80 19 -5 -13 -14 -27 -19 -31 -18 -10 -12 -53 9
-73 21 -19 20 -19 -23 -36 -25 -9 -69 -19 -98 -23 l-54 -6 32 36 c53 61 63
135 28 207 -6 14 -25 98 -40 187 -16 89 -33 159 -38 156 -5 -3 -17 -19 -27
-35 l-18 -31 -22 73 c-39 129 -73 293 -73 350 0 30 10 125 22 210 11 85 26
272 33 415 6 143 12 261 13 262 0 1 64 -15 140 -36 147 -41 466 -179 442 -192
-7 -4 -31 -10 -54 -14 l-42 -7 32 -27 c54 -47 167 -121 246 -161 159 -79 314
-123 516 -145 147 -17 163 -21 194 -61 19 -24 23 -25 83 -18 62 6 525 129 683
181 104 34 167 94 208 200 38 96 78 133 148 133 71 0 105 18 184 100 83 85
113 102 168 98 l42 -3 23 64 c25 70 52 212 52 272 0 46 -3 47 -96 18 -151 -46
-304 -139 -427 -258 -96 -93 -154 -176 -162 -235 -7 -44 -7 -44 -38 -35 -44
12 -173 11 -222 -2 -22 -6 -80 -29 -128 -50 -157 -70 -230 -83 -482 -84 -201
0 -224 2 -260 20 -45 23 -85 76 -85 113 l0 25 -23 -21 c-38 -36 -81 -43 -223
-36 -118 6 -134 5 -177 -14 l-47 -21 0 54 c0 30 -7 73 -16 94 l-16 40 -27 -20
c-36 -27 -111 -38 -111 -17 0 8 -14 42 -30 76 -60 120 -202 219 -347 243 -279
46 -503 -191 -424 -449 12 -39 26 -74 31 -77 22 -13 9 -57 -29 -98 -72 -80
-74 -93 -29 -222 l32 -92 -18 -61 c-18 -57 -18 -63 -2 -87 9 -14 25 -25 36
-25 14 0 21 -12 31 -54 12 -53 8 -198 -6 -243 -6 -19 -4 -23 13 -23 12 0 28
10 36 21 14 21 15 20 36 -21 12 -23 20 -43 18 -43 -32 -16 -46 -30 -62 -62
-19 -37 -19 -49 -7 -284 7 -135 9 -282 5 -326 l-7 -81 36 0 c37 0 69 -21 90
-59 6 -11 14 -76 18 -145 7 -134 27 -210 71 -262 22 -25 26 -26 88 -20 l65 7
3 43 3 42 -55 -6 -56 -7 0 79 c0 44 -3 122 -6 174 l-7 96 -42 17 c-23 10 -56
32 -73 50 l-31 32 15 50 c24 77 29 245 10 335 -14 66 -28 91 -56 102 -5 2 -4
29 2 60 6 35 14 55 20 52 6 -4 30 -48 54 -98 56 -119 78 -228 72 -357 l-5 -98
25 -3 c44 -5 59 -44 104 -263 l43 -209 34 -7 c19 -4 47 -20 63 -37 l30 -30
-16 -55 c-20 -70 -21 -67 14 -67 28 0 90 -24 90 -35 0 -2 -11 -15 -24 -28 -35
-35 -43 -87 -20 -133 11 -21 28 -42 39 -48 11 -6 22 -12 24 -13 2 -2 -4 -12
-14 -23 -9 -10 -15 -26 -12 -34 9 -24 107 -74 167 -87 84 -18 85 -19 36 -75
l-44 -50 64 4 c73 5 136 -14 184 -55 27 -22 36 -24 80 -18 60 8 80 -4 80 -47
0 -50 -16 -70 -53 -63 -18 3 -39 1 -47 -5 -12 -8 12 -36 128 -146 78 -75 142
-139 142 -144 0 -5 -21 -20 -47 -35 -41 -22 -51 -24 -75 -14 -38 16 -91 100
-53 86 7 -3 24 2 37 13 19 15 21 22 12 37 -17 28 -57 27 -121 -5 -93 -47 -97
-47 -116 -7 -9 19 -31 44 -48 54 -17 11 -36 29 -43 42 -7 14 -30 30 -59 40
-61 22 -76 35 -98 84 -22 48 -24 96 -5 134 l15 27 -70 38 -69 37 -21 -47 c-11
-27 -23 -44 -27 -38 -12 19 -50 26 -63 11 -10 -11 -25 -7 -88 25 -42 21 -89
41 -105 44 -26 6 -28 5 -21 -17 18 -59 67 -90 179 -113 43 -9 94 -25 112 -36
31 -20 74 -89 74 -121 0 -8 11 -37 24 -65 28 -61 64 -80 132 -70 45 6 81 -5
96 -28 12 -18 9 -46 -4 -46 -7 0 -102 28 -210 62 l-197 61 6 31 c3 17 12 46
19 65 8 19 13 35 12 36 -2 1 -68 20 -148 44 -157 46 -172 51 -178 69 -2 8 11
12 39 12 l43 0 -45 29 c-82 51 -153 161 -165 255 l-6 44 -83 32 -83 32 -35 77
-36 77 -75 17 c-89 19 -188 66 -247 116 -41 36 -42 37 -35 86 5 31 11 44 16
35 5 -8 18 -11 36 -7 19 3 35 0 46 -10 16 -14 18 -13 24 11 12 47 -1 59 -54
52 -26 -3 -63 -8 -82 -10 -19 -2 -47 -7 -61 -11 -24 -6 -27 -3 -33 27 -3 18
-33 76 -66 128 -57 89 -60 98 -60 155 1 66 15 101 51 122 23 13 22 14 -19 8
-32 -4 -44 -2 -48 10 -8 19 -35 19 -60 0 -18 -14 -18 -16 -2 -28 16 -13 15
-16 -12 -42 l-29 -28 -11 27 c-15 39 -12 75 9 122 19 42 63 84 87 84 18 0 17
5 -2 71 -19 65 -30 78 -39 49 -9 -29 -62 -60 -102 -60 l-33 0 79 79 c78 78 92
100 162 259 26 60 73 106 101 99 14 -4 20 4 29 35 14 52 5 86 -26 100 -19 9
-29 7 -49 -6 -25 -16 -25 -16 -32 20 -4 20 -4 60 0 90 5 43 3 54 -8 54 -24 0
-46 42 -46 88 0 30 11 64 36 112 19 38 36 82 36 99 1 28 3 30 62 36 l61 8 -37
32 c-42 36 -96 55 -154 55 -47 0 -103 -15 -129 -33 -18 -14 -18 -15 3 -59 30
-61 29 -147 -2 -213 -25 -54 -56 -89 -56 -63 0 16 -41 58 -56 58 -11 0 -34
-106 -26 -115 3 -3 45 -5 94 -5 l88 0 0 -46 c0 -67 -37 -236 -70 -323 -38 -97
-110 -223 -178 -306 -43 -54 -52 -72 -52 -105 0 -55 31 -51 72 8 l15 23 12
-29 c12 -28 9 -35 -62 -138 l-75 -109 21 -40 c11 -22 22 -34 24 -27 3 6 19 12
36 12 25 0 43 -12 93 -65 45 -47 70 -65 88 -65 30 0 30 3 12 -48 -27 -76 -38
-185 -27 -267 6 -43 13 -81 16 -85 3 -5 27 4 53 20 26 16 61 32 78 36 31 6 31
5 87 -108 120 -245 319 -455 548 -577 l79 -42 -6 28 c-3 16 0 36 8 45 12 17
17 15 63 -20 61 -46 118 -120 140 -181 9 -25 19 -53 24 -61 9 -20 466 -252
646 -328 330 -141 508 -175 920 -176 l250 -1 65 47 c83 59 189 112 268 134 68
19 75 32 38 69 -36 36 -96 40 -209 16 -116 -25 -113 -25 -96 -5 22 26 86 54
126 54 33 0 44 7 85 54 60 68 154 119 197 106 47 -13 78 -39 100 -83 11 -22
19 -42 18 -44 -2 -1 -25 4 -52 13 -28 8 -84 17 -125 20 l-75 5 25 -21 c14 -12
44 -40 68 -62 l43 -39 -55 -67 c-30 -37 -79 -96 -108 -131 l-52 -63 24 -20
c42 -34 127 -3 145 53 5 14 15 16 64 12 74 -7 133 12 243 78 185 112 249 135
503 179 458 81 527 129 756 538 75 134 139 208 255 293 91 67 134 123 134 175
1 49 34 105 114 194 89 98 115 141 123 211 16 131 136 185 302 135 30 -9 55
-15 57 -13 1 1 -18 61 -42 132 -65 188 -174 551 -181 602 -4 34 -2 48 12 63
23 26 45 26 45 0 0 -25 22 -26 42 -2 43 47 40 130 -7 215 -21 36 -26 60 -26
110 0 72 15 116 55 164 26 31 26 32 7 42 -25 14 -116 14 -142 1 -23 -13 -24
-26 -4 -64 19 -37 20 -36 -14 -36 -63 0 -117 103 -55 106 33 2 64 31 64 60 0
17 4 21 20 17 48 -13 140 31 140 67 0 24 -198 7 -302 -26 -50 -16 -57 -28 -35
-58 12 -16 10 -22 -15 -46 -50 -51 -35 -100 57 -190 31 -30 63 -67 71 -82 16
-31 19 -78 4 -78 -30 0 -160 99 -208 159 l-32 40 25 37 c32 47 59 144 40 144
-3 0 -54 -34 -114 -76 l-108 -76 -6 -62 c-6 -59 -38 -177 -56 -204 -21 -33
-81 44 -81 105 0 15 14 56 32 90 32 60 32 62 14 82 -11 12 -25 21 -33 21 -10
0 -13 11 -11 42 3 37 6 43 33 50 31 8 55 32 55 54 0 10 -8 10 -35 -2 -44 -18
-45 -18 -45 6 0 26 -22 26 -45 0 -14 -15 -16 -29 -12 -63 l6 -43 -33 4 c-32 4
-34 7 -45 60 -6 32 -18 70 -26 86 -20 38 -20 38 19 31 28 -6 36 -3 45 13 6 12
27 26 46 33 41 15 43 22 13 43 -30 21 -74 20 -125 -3 -40 -19 -41 -19 -46 0
-8 30 -42 22 -77 -18 -45 -51 -63 -98 -64 -171 -1 -37 -5 -61 -11 -59 -5 2
-47 16 -92 31 -67 22 -86 33 -102 59 -24 39 -61 148 -61 179 0 20 4 18 32 -17
47 -58 131 -146 135 -142 4 4 -16 261 -23 295 -4 19 -11 22 -52 23 -26 1 -59
4 -75 8 l-27 6 26 38 c68 101 119 254 155 467 19 115 20 139 9 187 -14 64 -63
126 -116 145 -31 11 -32 13 -18 29 26 29 14 54 -27 54 -29 0 -47 11 -105 62
-52 47 -77 63 -99 63 -16 0 -40 3 -52 6 -14 4 -23 2 -23 -5z m-737 -1016 c17
-12 14 -14 -25 -20 -52 -8 -128 -40 -128 -54 0 -29 -102 -111 -139 -111 -13 0
47 140 69 164 38 39 177 52 223 21z m-1118 -71 c143 -51 504 -58 663 -11 l82
24 0 -57 0 -58 -78 -21 c-123 -33 -191 -43 -246 -37 -28 4 -130 11 -226 16
-96 5 -213 18 -260 27 l-85 18 0 53 c1 81 30 90 150 46z m3258 -1282 c32 -36
39 -72 22 -121 -16 -44 -16 -48 3 -90 16 -34 18 -50 10 -64 -9 -18 -155 -93
-164 -85 -2 2 12 47 32 99 40 106 64 199 64 247 0 36 9 40 33 14z m-1164 -614
c5 -18 26 -86 46 -150 28 -91 40 -118 56 -123 27 -9 59 -62 59 -98 0 -38 -23
-80 -54 -96 -24 -14 -25 -15 -9 -41 14 -25 14 -30 -2 -64 -34 -71 -95 -75 -95
-6 0 38 -2 40 -30 40 -55 0 -128 -48 -156 -102 -8 -15 -16 -62 -19 -105 -6
-79 -23 -123 -50 -123 -13 0 -12 -8 6 -42 12 -23 25 -55 29 -70 8 -26 7 -27
-27 -24 -29 3 -40 11 -62 45 -14 22 -31 41 -37 41 -32 0 -78 -88 -67 -130 4
-16 13 -20 51 -20 30 0 49 5 57 17 11 15 13 15 25 -6 13 -26 12 -28 -44 -61
-38 -23 -38 -23 -27 -1 17 31 -9 38 -65 16 -56 -21 -81 -56 -66 -90 12 -26 18
-22 -77 -41 -29 -5 -29 -5 -28 43 2 43 -1 48 -20 51 -28 4 -40 -35 -26 -83 8
-23 7 -37 0 -44 -21 -21 -27 -10 -27 54 0 52 -3 67 -17 72 -10 4 -23 -2 -34
-15 -22 -28 -47 -28 -110 -1 l-49 21 0 52 0 52 65 32 c53 26 70 30 86 22 11
-6 24 -8 29 -5 15 9 12 62 -4 68 -8 3 -22 17 -31 31 -15 23 -15 27 0 56 9 17
23 34 31 37 7 3 14 18 14 34 0 15 5 39 11 53 11 24 12 24 46 8 27 -13 34 -21
30 -39 -2 -13 0 -23 6 -23 6 0 19 -8 29 -17 16 -14 23 -15 38 -5 17 10 22 8
36 -13 9 -13 18 -42 21 -65 3 -22 7 -40 9 -40 3 0 31 7 64 17 l60 16 0 49 c0
32 12 80 35 140 51 131 75 229 82 336 l6 92 44 0 c51 0 111 -22 119 -44 3 -9
-4 -32 -15 -52 -17 -28 -19 -39 -10 -50 9 -11 9 -20 -2 -40 -16 -30 -2 -44 37
-36 22 4 24 9 24 58 0 30 9 80 20 112 l20 57 -52 108 -52 107 29 30 c16 17 30
30 31 30 1 0 7 -15 13 -32z m-3983 -262 c-3 -13 -9 -31 -12 -40 -5 -13 2 -16
45 -16 52 0 65 -12 39 -38 -10 -10 -6 -19 17 -41 59 -58 85 -90 85 -105 0 -22
-11 -46 -21 -46 -19 0 -82 78 -109 135 -15 33 -38 69 -50 80 -23 21 -50 66
-50 85 0 5 14 10 31 10 28 0 31 -3 25 -24z m3439 -123 c-13 -153 -13 -153 -44
-153 -22 0 -29 7 -40 35 -11 31 -46 68 -73 77 -6 2 -2 17 11 38 18 31 24 34
59 32 27 -2 46 3 63 17 13 11 25 20 27 21 2 0 1 -30 -3 -67z m943 -99 c28 -19
30 -54 3 -54 -11 0 -33 -11 -48 -24 -25 -22 -26 -25 -10 -31 9 -4 24 -1 33 6
36 29 43 -54 8 -93 -19 -20 -103 -63 -110 -55 -3 2 5 42 16 88 12 46 20 93 17
106 -3 15 2 24 13 28 10 3 20 15 23 25 6 24 25 25 55 4z m-1397 -54 c47 -26
-7 -131 -87 -171 -39 -20 -49 -30 -49 -49 0 -39 -29 -32 -33 7 -4 43 37 118
96 177 51 52 47 50 73 36z m1189 -332 c61 -32 70 -51 41 -82 -13 -14 -32 -28
-43 -32 -10 -3 -18 -12 -18 -19 0 -8 -10 -20 -22 -26 -13 -6 -33 -21 -46 -32
-22 -20 -22 -20 -37 -1 -22 29 -19 64 5 64 11 0 20 4 20 9 0 5 -9 30 -20 56
-26 60 -25 73 3 78 49 9 75 6 117 -15z m-1204 -190 c-13 -67 -28 -78 -111 -78
-41 0 -75 2 -75 4 0 2 9 25 19 50 l20 45 58 4 c32 2 66 4 77 5 16 2 18 -3 12
-30z"/>
<path d="M3372 4938 c-9 -12 -4 -19 28 -37 22 -12 40 -26 40 -30 0 -4 -18 -13
-41 -20 -38 -12 -40 -14 -37 -49 3 -43 35 -59 45 -23 3 12 16 24 29 27 29 7
76 61 72 82 -8 40 -112 78 -136 50z"/>
<path d="M1938 4743 c-22 -26 -44 -72 -57 -120 -9 -33 -9 -47 1 -63 11 -18 10
-23 -5 -34 -17 -14 -14 -46 5 -46 5 0 8 -8 6 -17 -2 -14 -11 -17 -36 -15 -44
5 -42 -19 3 -41 34 -16 35 -18 20 -40 -8 -13 -12 -27 -8 -30 14 -14 53 -6 63
13 6 11 17 20 24 20 20 0 27 26 16 56 -6 16 -6 40 0 67 5 23 10 65 10 92 0 35
7 62 25 90 13 22 25 50 25 63 0 19 -5 22 -38 22 -25 0 -45 -7 -54 -17z"/>
<path d="M5999 4247 c-109 -120 -196 -197 -223 -197 -12 0 -32 7 -44 16 -13 9
-30 13 -38 10 -26 -10 31 -100 70 -112 22 -6 34 -18 41 -41 6 -18 14 -35 17
-38 13 -13 47 6 50 28 4 30 31 33 43 5 7 -17 18 -23 40 -23 28 0 30 3 31 35 0
25 5 36 17 38 27 5 18 62 -10 62 -25 0 -11 45 15 48 16 2 28 17 43 53 12 27
27 49 34 49 15 0 56 65 48 74 -4 3 -18 6 -32 6 -19 0 -22 3 -13 12 14 14 16
54 3 62 -4 3 -46 -36 -92 -87z"/>
<path d="M596 4179 c-51 -60 -85 -174 -72 -244 4 -20 13 -35 21 -35 21 0 28
-92 16 -216 -6 -60 -15 -126 -20 -146 -7 -32 -6 -38 10 -43 21 -7 66 14 90 41
9 11 31 49 48 86 17 37 43 76 57 87 36 28 28 56 -15 54 -18 0 -41 -9 -51 -18
-17 -15 -19 -15 -25 4 -3 11 1 36 10 57 14 33 14 39 0 54 -8 9 -15 22 -15 28
0 7 -14 12 -31 12 -24 0 -29 3 -25 18 3 9 17 64 31 122 26 108 32 180 16 180
-5 0 -25 -19 -45 -41z"/>
<path d="M6116 4133 c-16 -106 -36 -286 -32 -290 2 -2 18 2 34 11 30 16 42 34
42 66 0 10 9 20 20 23 18 5 20 13 20 89 0 96 -14 132 -52 136 -23 3 -27 -1
-32 -35z"/>
<path d="M1063 3963 c-7 -2 -13 -10 -13 -17 0 -7 -11 -18 -24 -24 -17 -7 -28
-24 -35 -52 -6 -22 -15 -57 -21 -78 -17 -68 -119 -162 -175 -162 -17 0 -21
-59 -6 -88 7 -13 -6 -35 -55 -97 -75 -94 -104 -148 -104 -196 0 -49 20 -74 53
-65 33 8 46 31 58 109 11 69 39 116 81 142 15 9 28 20 28 24 0 4 13 6 29 3 39
-5 118 22 156 53 29 24 29 25 11 40 -25 19 -60 18 -111 -1 -74 -28 -75 -28
-75 -2 0 21 8 27 56 42 35 11 73 33 100 58 41 38 94 126 94 156 0 8 20 37 45
64 25 28 43 54 40 58 -16 26 -99 47 -132 33z"/>
<path d="M6830 3864 c-89 -38 -156 -154 -90 -154 12 0 47 24 79 55 32 30 65
55 74 55 18 0 22 17 11 44 -8 20 -29 20 -74 0z"/>
<path d="M1546 3749 c-33 -59 -30 -99 8 -99 20 0 50 -22 123 -91 31 -30 87
-23 91 11 3 35 -32 90 -59 90 -12 0 -23 8 -26 19 -3 11 -13 21 -24 24 -15 4
-18 11 -13 35 5 26 2 32 -24 46 -17 9 -35 16 -40 16 -5 0 -21 -23 -36 -51z"/>
<path d="M1460 3534 c-10 -3 -15 -18 -16 -47 -2 -78 -13 -117 -34 -117 -15 0
-20 -7 -20 -26 0 -14 -5 -35 -12 -47 -7 -12 -13 -37 -13 -55 -2 -29 3 -36 37
-53 21 -11 38 -15 38 -9 0 6 11 15 23 21 18 8 23 17 19 34 -9 48 44 73 141 66
21 -2 27 2 27 18 0 26 10 51 21 51 5 0 9 -6 9 -14 0 -7 11 -21 25 -30 14 -9
25 -23 25 -31 0 -18 -47 -55 -70 -55 -10 0 -20 -9 -23 -19 -3 -12 -15 -21 -33
-23 -23 -2 -29 -8 -27 -25 2 -14 -5 -27 -18 -34 -24 -12 -49 -66 -49 -103 0
-15 -8 -30 -20 -36 -13 -7 -20 -21 -20 -38 0 -21 -7 -30 -29 -39 -32 -12 -51
-57 -51 -121 0 -18 -7 -43 -15 -55 -9 -14 -11 -27 -6 -36 6 -10 0 -21 -19 -37
-17 -14 -32 -41 -39 -68 -15 -61 -14 -73 9 -96 16 -16 25 -18 40 -10 22 12 26
40 9 57 -8 8 -6 13 9 17 13 5 21 19 26 44 5 37 7 38 42 34 34 -4 35 -3 25 17
-6 11 -24 27 -39 35 l-27 15 37 15 c21 9 47 16 58 16 21 0 21 0 3 31 -18 30
-18 31 6 50 33 27 39 24 46 -18 10 -63 22 -83 49 -83 37 0 39 13 10 80 -21 46
-24 64 -16 72 7 7 12 45 12 90 0 79 15 135 46 169 14 15 18 15 45 2 42 -21 65
-10 66 31 1 18 6 43 12 54 11 20 13 20 56 6 41 -14 46 -14 61 1 15 14 18 14
33 0 23 -20 41 -19 41 3 0 40 -37 57 -116 55 l-74 -2 0 28 c0 15 -5 42 -11 60
-11 30 -13 31 -69 31 l-57 0 -17 -45 c-14 -36 -21 -43 -34 -36 -9 5 -27 13
-39 17 -22 9 -22 9 12 64 19 30 37 67 40 81 6 26 4 28 -45 38 -51 11 -73 12
-100 5z"/>
<path d="M4290 3337 c-118 -37 -130 -42 -130 -63 0 -20 111 -18 229 5 91 18
94 18 98 0 7 -26 29 -24 58 6 36 35 33 55 -9 55 -18 0 -46 4 -62 9 -62 20 -82
19 -184 -12z"/>
<path d="M3845 3333 c-131 -11 -146 -20 -86 -56 33 -19 73 -22 101 -7 14 8 25
7 40 -2 18 -11 23 -10 31 5 8 14 24 17 89 17 64 0 80 3 80 15 0 8 -9 19 -19
25 -18 9 -142 11 -236 3z"/>
<path d="M3560 3193 c0 -17 21 -28 123 -63 112 -39 125 -42 163 -32 28 8 53 8
75 2 40 -12 102 -3 96 14 -8 23 -54 36 -127 34 -44 -1 -85 4 -98 11 -13 7 -34
10 -46 7 -13 -3 -40 3 -63 14 -23 11 -59 22 -82 26 -36 6 -41 4 -41 -13z"/>
<path d="M1740 3077 c0 -7 5 -18 11 -24 13 -13 4 -33 -16 -33 -10 0 -12 -11
-8 -41 5 -31 0 -50 -16 -80 -15 -26 -24 -64 -28 -113 l-6 -74 36 -11 c46 -16
53 -11 55 35 2 52 10 72 33 79 14 5 18 12 13 30 -4 16 1 30 15 44 28 28 30
110 3 117 -9 3 -27 23 -40 45 -22 38 -52 53 -52 26z"/>
<path d="M840 2964 c-61 -26 -100 -62 -100 -93 0 -36 17 -51 57 -51 28 0 37 6
55 36 l21 36 63 -5 c77 -6 89 0 73 37 -24 53 -99 70 -169 40z"/>
<path d="M3990 2967 c0 -8 -9 -25 -19 -38 -14 -18 -17 -29 -10 -42 20 -36 -14
-48 -64 -22 -26 13 -31 13 -52 -3 -14 -9 -23 -21 -21 -27 1 -5 38 -25 82 -45
44 -19 88 -40 97 -46 23 -14 49 -111 37 -135 -11 -20 -3 -49 14 -49 6 0 32 13
57 29 l46 29 -8 56 c-4 30 -12 71 -19 91 -11 32 -9 40 19 90 17 30 31 62 31
70 0 21 -52 42 -128 51 -52 5 -62 4 -62 -9z"/>
<path d="M1820 2676 c0 -8 5 -18 10 -21 15 -9 12 -35 -4 -35 -21 0 -27 -41
-16 -100 11 -60 16 -70 34 -70 8 0 16 -9 19 -20 8 -30 43 -24 83 14 29 28 33
38 28 64 -6 31 -7 31 -35 17 -45 -24 -76 -19 -82 11 -3 18 1 29 17 39 27 17
111 45 136 45 16 0 20 7 20 36 0 31 -3 35 -17 29 -70 -29 -108 -29 -180 1 -7
3 -13 -1 -13 -10z"/>
<path d="M1716 2558 c-44 -63 -42 -62 -74 -40 -15 11 -40 24 -55 27 l-27 7 0
-85 0 -85 -37 -13 c-72 -23 -165 -73 -189 -102 -14 -16 -24 -41 -24 -59 0 -30
0 -30 24 -15 21 14 26 14 36 2 6 -7 25 -17 41 -20 27 -6 30 -10 27 -41 -2 -33
0 -35 74 -73 l77 -40 26 46 c27 49 30 63 15 63 -5 0 -12 11 -16 25 -5 19 -15
26 -43 31 -20 3 -40 7 -45 8 -6 1 6 19 25 40 28 31 44 39 81 43 l47 5 16 -53
c9 -30 19 -76 22 -104 4 -27 13 -55 21 -61 11 -8 12 -13 4 -18 -7 -4 -12 -18
-12 -31 0 -19 7 -26 28 -31 54 -12 62 -16 57 -25 -4 -5 -15 -9 -25 -9 -46 0
-30 -44 20 -55 15 -3 52 -24 81 -46 29 -21 61 -39 71 -39 25 0 25 -61 0 -83
-28 -25 -39 -21 -67 23 -14 22 -30 40 -35 40 -6 0 -10 -19 -10 -43 0 -41 2
-44 46 -65 26 -13 75 -54 111 -92 47 -50 86 -80 136 -105 38 -19 77 -35 85
-35 13 0 13 -3 4 -12 -16 -16 -15 -50 2 -74 14 -18 15 -18 26 11 6 16 9 37 7
47 -4 15 1 16 44 11 45 -5 49 -4 49 15 0 11 -5 24 -10 27 -16 10 -1 25 26 25
13 0 24 -2 24 -4 0 -2 -10 -29 -21 -60 -21 -55 -22 -56 -61 -56 -30 0 -39 -3
-35 -14 3 -8 11 -32 18 -55 10 -35 16 -41 39 -41 42 0 93 40 110 87 13 35 18
40 33 32 9 -6 22 -7 27 -4 13 8 -6 45 -24 45 -11 0 -12 10 -5 47 7 37 5 54 -8
82 -16 32 -23 36 -60 39 -32 2 -44 -1 -56 -18 l-14 -20 -92 21 c-67 15 -90 24
-82 32 16 16 14 44 -4 51 -8 3 -15 14 -15 24 0 10 -10 24 -22 30 l-23 11 23 0
c12 1 22 7 22 14 0 20 -33 47 -57 47 -16 0 -23 8 -28 33 -13 56 -44 106 -87
137 -22 17 -47 30 -54 30 -10 0 -12 9 -8 29 5 23 2 32 -16 41 -12 7 -33 10
-46 7 -21 -4 -23 -1 -18 20 4 15 -7 68 -27 134 -28 93 -36 110 -56 114 -77 16
-74 15 -71 43 2 17 10 28 23 31 11 2 30 7 43 12 21 8 22 10 8 37 -13 26 -13
29 5 40 24 15 24 44 1 65 -24 22 -27 21 -46 -5z"/>
<path d="M4633 2298 c-12 -13 -25 -35 -28 -50 -5 -19 -14 -28 -27 -28 -10 0
-30 -12 -44 -27 -14 -16 -35 -38 -47 -50 -18 -20 -19 -23 -4 -29 20 -7 171 42
192 63 22 21 28 57 18 100 -10 45 -31 52 -60 21z"/>
<path d="M2740 2263 c0 -5 7 -17 15 -27 8 -11 15 -37 15 -58 0 -53 24 -106 54
-120 33 -14 33 -26 2 -34 -29 -7 -46 1 -46 22 0 8 -9 14 -20 14 -11 0 -20 -7
-20 -15 0 -17 -16 -20 -25 -5 -11 18 -25 0 -25 -31 0 -35 13 -64 46 -99 12
-14 30 -42 39 -62 8 -21 17 -38 20 -38 2 0 20 14 40 31 41 36 61 96 47 138 -7
21 -5 43 11 89 17 53 22 60 35 50 8 -7 23 -32 33 -56 12 -27 29 -47 46 -55 17
-7 28 -20 28 -32 0 -26 27 -30 65 -11 28 13 31 13 40 -5 15 -28 38 -23 42 8 3
25 8 28 63 38 44 7 61 15 63 28 2 9 12 17 23 17 14 0 19 6 17 18 -5 29 -80 28
-133 -1 -50 -28 -87 -26 -125 7 -14 12 -37 27 -51 33 -18 8 -33 28 -49 67 -18
45 -27 56 -45 56 -12 0 -39 7 -59 15 -25 11 -42 12 -54 6 -12 -6 -23 -5 -37 5
-20 15 -55 19 -55 7z"/>
<path d="M2056 2200 c-5 -27 -9 -30 -46 -30 -39 0 -40 -1 -34 -27 3 -16 17
-37 30 -48 13 -12 24 -26 24 -33 0 -19 35 -14 54 7 10 11 26 46 36 78 19 62
18 65 -31 77 -23 5 -27 2 -33 -24z"/>
<path d="M3810 2190 c0 -37 2 -40 40 -50 38 -10 40 -13 40 -49 0 -21 -3 -40
-6 -43 -9 -10 -63 26 -68 45 -4 16 -10 18 -38 12 -38 -9 -48 -20 -48 -56 0
-19 7 -29 23 -34 20 -6 19 -8 -15 -23 -37 -16 -38 -19 -38 -67 0 -39 4 -53 20
-63 11 -7 20 -21 20 -32 0 -26 31 -26 54 -1 9 10 21 46 28 81 6 35 19 71 29
81 21 21 54 25 64 9 5 -8 11 -7 21 1 8 7 31 12 50 11 36 -1 36 -1 20 23 -15
22 -14 24 4 30 11 4 20 12 20 20 0 8 -9 16 -20 20 -19 6 -19 8 -3 31 8 14 12
28 9 32 -4 4 -34 5 -67 4 -55 -4 -61 -2 -88 27 -39 41 -51 39 -51 -9z"/>
<path d="M4213 2213 c-27 -10 -14 -64 23 -101 33 -33 36 -40 30 -79 -8 -60
-31 -101 -72 -125 -35 -21 -42 -36 -23 -55 8 -8 7 -17 -2 -32 -11 -16 -11 -23
-2 -32 20 -20 63 5 63 35 0 17 7 26 25 30 28 7 55 53 80 138 19 68 12 102 -26
130 -16 12 -29 28 -29 35 0 7 -7 13 -15 13 -9 0 -20 11 -25 25 -5 14 -11 25
-12 24 -2 0 -9 -3 -15 -6z"/>
<path d="M3394 2076 c-7 -19 14 -96 27 -96 5 0 17 5 27 11 14 9 34 6 92 -14
54 -19 78 -23 87 -15 20 16 15 28 -11 28 -13 0 -30 8 -37 17 -12 15 -12 16 8
11 12 -3 30 0 40 7 14 11 15 15 4 28 -19 23 -108 39 -156 27 -25 -6 -44 -5
-49 0 -14 14 -26 12 -32 -4z"/>
<path d="M3930 1912 l0 -78 -35 -17 c-31 -15 -35 -21 -35 -55 0 -22 3 -60 6
-86 7 -47 7 -47 43 -44 33 3 36 6 39 36 2 17 9 32 15 32 7 0 27 23 46 51 40
57 52 140 31 203 -11 35 -13 36 -61 36 l-49 0 0 -78z"/>
<path d="M3314 1963 c-30 -15 -31 -17 -29 -80 1 -65 2 -66 38 -84 l37 -19 -21
-21 c-27 -27 -21 -53 13 -57 19 -2 30 3 38 17 6 12 20 21 31 21 11 0 28 4 37
9 26 13 110 -9 115 -31 4 -15 9 -17 31 -8 14 5 37 14 51 20 l24 9 -16 45 c-16
41 -19 44 -48 39 -17 -3 -48 2 -69 11 -48 20 -56 20 -56 0 0 -9 -8 -14 -17
-13 -33 3 -41 -1 -47 -23 l-7 -23 -10 25 c-6 14 -8 42 -6 64 4 31 2 39 -13 43
-11 3 -21 18 -25 39 -7 38 -8 39 -51 17z"/>
<path d="M2977 1903 c-39 -10 -47 -88 -21 -200 9 -37 17 -95 17 -128 2 -78 25
-87 59 -23 22 43 22 45 17 201 0 12 3 45 6 72 5 37 4 54 -6 62 -19 14 -50 21
-72 16z"/>
<path d="M3590 1621 c-21 -6 -25 -13 -23 -39 2 -23 -2 -32 -16 -37 -22 -7 -57
-83 -67 -144 -4 -24 -13 -45 -20 -48 -8 -3 -14 -14 -14 -24 0 -15 7 -19 34
-19 19 0 42 -3 51 -6 11 -5 18 0 22 15 7 29 49 29 56 0 7 -26 31 -20 35 9 2
12 15 29 30 37 63 34 102 85 102 132 0 37 -10 40 -59 20 -24 -10 -39 -29 -61
-76 l-30 -62 -52 3 c-39 2 -54 7 -56 19 -2 10 5 19 18 22 14 4 20 13 20 34 0
25 7 31 60 55 46 20 60 31 60 47 0 12 -6 21 -15 21 -11 0 -14 7 -9 25 5 22 3
25 -17 24 -13 -1 -35 -4 -49 -8z"/>
<path d="M3171 1592 c-34 -19 -71 -72 -71 -103 0 -12 11 -18 36 -21 34 -4 38
-2 51 31 20 47 17 46 48 16 27 -28 30 -28 123 -9 17 3 32 10 32 14 0 16 -72
67 -109 79 -52 15 -71 14 -110 -7z"/>
</g>
</svg>
